<svg id="visual" viewBox="0 0 675 900" width="675" height="900" xmlns="http://www.w3.org/2000/svg" xmlns:xlink="http://www.w3.org/1999/xlink" version="1.1"><rect x="0" y="0" width="675" height="900" fill="#ffffff"></rect><defs><linearGradient id="grad1_0" x1="0%" y1="0%" x2="100%" y2="100%"><stop offset="30%" stop-color="#525599" stop-opacity="1"></stop><stop offset="70%" stop-color="#525599" stop-opacity="1"></stop></linearGradient></defs><defs><linearGradient id="grad1_1" x1="0%" y1="0%" x2="100%" y2="100%"><stop offset="30%" stop-color="#525599" stop-opacity="1"></stop><stop offset="70%" stop-color="#a9a6cc" stop-opacity="1"></stop></linearGradient></defs><defs><linearGradient id="grad1_2" x1="0%" y1="0%" x2="100%" y2="100%"><stop offset="30%" stop-color="#ffffff" stop-opacity="1"></stop><stop offset="70%" stop-color="#a9a6cc" stop-opacity="1"></stop></linearGradient></defs><defs><linearGradient id="grad2_0" x1="0%" y1="0%" x2="100%" y2="100%"><stop offset="30%" stop-color="#525599" stop-opacity="1"></stop><stop offset="70%" stop-color="#525599" stop-opacity="1"></stop></linearGradient></defs><defs><linearGradient id="grad2_1" x1="0%" y1="0%" x2="100%" y2="100%"><stop offset="30%" stop-color="#a9a6cc" stop-opacity="1"></stop><stop offset="70%" stop-color="#525599" stop-opacity="1"></stop></linearGradient></defs><defs><linearGradient id="grad2_2" x1="0%" y1="0%" x2="100%" y2="100%"><stop offset="30%" stop-color="#a9a6cc" stop-opacity="1"></stop><stop offset="70%" stop-color="#ffffff" stop-opacity="1"></stop></linearGradient></defs><g transform="translate(675, 0)"><path d="M0 196.9C-25.5 194.5 -51 192.2 -75.3 181.9C-99.7 171.6 -123 153.2 -130.1 130.1C-137.3 107 -128.3 79.1 -136.7 56.6C-145.2 34.2 -171 17.1 -196.9 0L0 0Z" fill="#d4d2e5"></path><path d="M0 131.3C-17 129.7 -34 128.1 -50.2 121.3C-66.5 114.4 -82 102.1 -86.7 86.7C-91.5 71.3 -85.5 52.7 -91.2 37.8C-96.8 22.8 -114 11.4 -131.2 0L0 0Z" fill="#7e7cb2"></path><path d="M0 65.6C-8.5 64.8 -17 64.1 -25.1 60.6C-33.2 57.2 -41 51.1 -43.4 43.4C-45.8 35.7 -42.8 26.4 -45.6 18.9C-48.4 11.4 -57 5.7 -65.6 0L0 0Z" fill="#525599"></path></g><g transform="translate(0, 900)"><path d="M0 -196.9C27.5 -196.2 55 -195.4 75.3 -181.9C95.6 -168.3 108.7 -141.9 120.9 -120.9C133.1 -99.9 144.5 -84.3 157.1 -65.1C169.6 -45.8 183.2 -22.9 196.9 0L0 0Z" fill="#d4d2e5"></path><path d="M0 -131.2C18.3 -130.8 36.7 -130.3 50.2 -121.3C63.8 -112.2 72.5 -94.6 80.6 -80.6C88.8 -66.6 96.4 -56.2 104.7 -43.4C113.1 -30.5 122.2 -15.3 131.3 0L0 0Z" fill="#7e7cb2"></path><path d="M0 -65.6C9.2 -65.4 18.3 -65.1 25.1 -60.6C31.9 -56.1 36.2 -47.3 40.3 -40.3C44.4 -33.3 48.2 -28.1 52.4 -21.7C56.5 -15.3 61.1 -7.6 65.6 0L0 0Z" fill="#525599"></path></g></svg>