<svg id="visual" viewBox="0 0 960 540" width="960" height="540" xmlns="http://www.w3.org/2000/svg" xmlns:xlink="http://www.w3.org/1999/xlink" version="1.1"><path d="M0 401L26.7 410.8C53.3 420.7 106.7 440.3 160 448.3C213.3 456.3 266.7 452.7 320 442.5C373.3 432.3 426.7 415.7 480 414.5C533.3 413.3 586.7 427.7 640 435C693.3 442.3 746.7 442.7 800 444.2C853.3 445.7 906.7 448.3 933.3 449.7L960 451L960 541L933.3 541C906.7 541 853.3 541 800 541C746.7 541 693.3 541 640 541C586.7 541 533.3 541 480 541C426.7 541 373.3 541 320 541C266.7 541 213.3 541 160 541C106.7 541 53.3 541 26.7 541L0 541Z" fill="#8082b6"></path><path d="M0 461L26.7 455.8C53.3 450.7 106.7 440.3 160 436.3C213.3 432.3 266.7 434.7 320 444.8C373.3 455 426.7 473 480 477.8C533.3 482.7 586.7 474.3 640 469C693.3 463.7 746.7 461.3 800 455.7C853.3 450 906.7 441 933.3 436.5L960 432L960 541L933.3 541C906.7 541 853.3 541 800 541C746.7 541 693.3 541 640 541C586.7 541 533.3 541 480 541C426.7 541 373.3 541 320 541C266.7 541 213.3 541 160 541C106.7 541 53.3 541 26.7 541L0 541Z" fill="#6164a3"></path><path d="M0 503L26.7 501C53.3 499 106.7 495 160 494C213.3 493 266.7 495 320 494.5C373.3 494 426.7 491 480 486C533.3 481 586.7 474 640 477.7C693.3 481.3 746.7 495.7 800 500.7C853.3 505.7 906.7 501.3 933.3 499.2L960 497L960 541L933.3 541C906.7 541 853.3 541 800 541C746.7 541 693.3 541 640 541C586.7 541 533.3 541 480 541C426.7 541 373.3 541 320 541C266.7 541 213.3 541 160 541C106.7 541 53.3 541 26.7 541L0 541Z" fill="#4b4d8b"></path><path d="M0 493L26.7 497C53.3 501 106.7 509 160 511.8C213.3 514.7 266.7 512.3 320 510.2C373.3 508 426.7 506 480 506.5C533.3 507 586.7 510 640 509.8C693.3 509.7 746.7 506.3 800 507.3C853.3 508.3 906.7 513.7 933.3 516.3L960 519L960 541L933.3 541C906.7 541 853.3 541 800 541C746.7 541 693.3 541 640 541C586.7 541 533.3 541 480 541C426.7 541 373.3 541 320 541C266.7 541 213.3 541 160 541C106.7 541 53.3 541 26.7 541L0 541Z" fill="#3c3e70"></path></svg>